<?xml version="1.0" encoding="utf-8"?>
<!-- Generator: Adobe Illustrator 18.0.0, SVG Export Plug-In . SVG Version: 6.00 Build 0)  -->
<!DOCTYPE svg PUBLIC "-//W3C//DTD SVG 1.1//EN" "http://www.w3.org/Graphics/SVG/1.1/DTD/svg11.dtd">
<svg version="1.1" id="Слой_2" xmlns="http://www.w3.org/2000/svg" xmlns:xlink="http://www.w3.org/1999/xlink" x="0px" y="0px"
	 viewBox="18 60 1203 1083" enable-background="new 18 60 1203 1083" xml:space="preserve">
<path fill="#808080"    d="M1159.4,1044.6c-14.8-10.6-40.1-21.7-49.6-38
	c9.4,2.3,21.1,1.9,30.1,5.9c9.1,4.1,18.4,10.5,22.4-3.2c6-20.3-16.3-40.7-30.8-49.9c-39.4-25-76.8-53.1-116.4-78.2
	c-18.6-11.8-37.2-24-54-39c-7.7-6.9-43.4-31.3-45.9-34.9c25.1-11.6,1.4-62.1-16.6-70.6c20.8-15.5-56.1-71.6-68.6-80.6
	c-18.3-13.1-34.6-28.9-52.4-42.4c-9.2-7-20-12.1-29.1-19.1c-9-7-14.3-18.1-19.6-28.7c-10.7-21.5-25-35.8-42-52.8
	c-16.3-16.3-22.5-32.2-32.8-51.9C633,421,554.5,351.3,514.4,315.3c-9.3-8.3-20-15.6-25.3-26.9c-4.9-10.5-5.3-19.8-11.2-30
	c-11.9-20.3-15.3-43.8-25.4-64.9s-18.6-41.3-33.2-59.7c-29.6-37.4-74.6-68.2-122.6-68.2c-28.7,0-49.8,0.8-74.8,13.3
	c-24.3,12.3-46.6,15.5-73,19.7c-41.6,6.7-98.5,8.7-126.1,48.2c6.1,3.4,60.2,13.1,73,13.6c46.4,1.7,47.5,8.1,69.7,11.7
	c0,0,22.4,6.6,36.2,27c7.1,10.5,13.2,22.1,19.9,32.9c7.9,12.6,14.6,70.1,15.4,84.7c1.4,25.6-11,49.7-16.7,73
	c-5.9,23.9-13.8,50.2-11.5,76.5c2.3,26.1,4.8,53.4,13,78.1c7.6,23.1,20.2,42.1,31.9,63.2c22.9,41.1,27.2,87.4,55.3,125.8
	c13.5,18.5,29.8,34.8,43.2,53.6c10.4,14.6,28.4,33.9,32.3,53.2c-1.2-5.9-3.1-11.9-2.9-17.8c2.3,7.3,9.7,20,9.9,18.4
	c-2.4-5.5-3.7-11.8-6.3-17c13.6,8.2,26.3,21.9,38,33c7.3,7,15.7,13,23.7,18.9c1.2,4.1,1,8.6,2,12.6c1.2,4.8,3.1,9.3,4.2,14.1
	c0.4,1.6-0.3,5.2,1,6.5c1.6,1.6,4.3,1.7,4.8-0.4c1.4,4,1.3,9.8,1.7,13.8c0.5,5,0.5,9.8,1,14.8c0.5,0.1,0.9,0.2,1.4,0.3
	c2.1,4.7,2.4,12.2,2.8,17.2c1.6,0,1.9,0.8,3.1,1.2c-1.8,9.4-16,18.4-21.5,26.4c-7.1,10.3-14.2,20.7-21.4,30.9
	c-3.8,5.5-9,9.3-13.3,14c-4.7,5.2-8.4,11-13.5,15.8c-3.9,3.6-8.6,6.2-12.7,9.7c-2.7,2.3-2.3,3.3-5.4,2.5c-2-0.5-4.3-3.5-5.8-5
	c-5.1-4.9-9.8-12.2-17.7-11.4c-6.7,0.6-10.9,6-12.5,12.1c-1-0.7-1.9-1.4-2.7-1.9c-6.2-4.7-10.4-10.2-16.2-15.4
	c-3-2.7-6.1-4.7-9.4-6.4c-3.5-1.8-6.5-4.8-10-6.6c-6.7-3.6-18.7-4.1-22.3,4c8.7-4.5,20.1,2,23,9.9c-4.4,3.8-5.5,6-5.9,11.8
	c-5.7-4.2-17.5,4.6-17.8,11c7.9-2.7,16.5-7.7,23.4-0.1c-16,10.7,13.9,20.7,21,23.4c-0.1,6.2,10.6,5.2,14.2,6.6
	c4.8,1.8,9.2,6.6,15.9,5c2.6-0.6,4.1-2.7,6.6-3.4c3.4-0.9,7,0.8,10,0.9c5.5,0,11.7-2.5,17.5-3.3c12.9-1.9,24.2-1.1,34.7,6.9
	c4.7,3.6,10.2,6.8,16,8.7c3.1,1,5.7,0.4,8.9,0.8c2.8,0.4,4,1.3,6.8,3.5c5.5,4.2,13.6,13.3,20.8,13.3c4.3,0,8.8-4,11.1-7.3
	c3.6-5.2,1-7.8-0.1-12.5c17.4,1.4,29,20.2,30.8,36.4c2.9-2.7,2.8-13.9,2.1-18c-0.8-5.4-3.2-11.4-6.2-16.2c-7-11-16.8-14.7-29.3-15.6
	c-6.4-0.5-11.6-2.7-18.3-3.3c-3.8-0.3-5.5-0.3-8.5-1.7c-3-1.3-6-2.2-8.8-3.5c-7.6-3.4-23-14-19.5-23.1c1.9-5,6.8-10,10-14.2
	c3.8-5.1,7.5-10.5,11.2-15.4c7.5-10,12.1-21.9,21.4-30.8c8.6-8.1,16.1-17.1,25.1-24.9c10.2-8.9,14.6-18.3,18.9-30.1
	c4.1-11.6,6.1-22.7,3.1-34.9c-2.9-11.7-5.3-22.8-8.9-34.1c-2-6.5-3.5-13.8-6-20.8c11.3,4.3,22.4,12.7,33,17.9
	c13.4,6.5,27.3,12.1,41.3,18c-5.7-6.4-10.7-13.1-18.4-15.8c12.1,3.3,23.6,8.8,35.3,12.1c-0.5-10.2-13.6-15.7-20.8-21.4
	c9.5-0.1,14.7,10.6,24.2,9.7c-10.5-8.6-24.5-17.4-37.6-23c15.3-2.4,39,12.6,52.7,18.7c6.2,2.8,12.3,5.4,18.3,8.1
	c0.6,2.2,1.2,4.3,1.6,6.6c1,5.4,2.7,11.3,5.2,16.4c2.4,4.8,6.1,8.9,8.9,13.5c3.5,5.6,1.9,10.6,0.9,16.7c-4,24.7-8.2,49.4-14.1,73.9
	c-2.6,10.8-7.3,22.2-11.9,32.2c-1.9,4.2-5,9.7-9.1,12.4c-6.5,4.4-7.4-1.1-12.5-4.6c-4.5-3-10-2.3-14.7-5.4
	c-4.8-3.2-8.9-6.3-14.2-8.1c-5.6-1.9-10.2-2.8-15.1,1.4c-3.7,3.2-7.3,8.4-6.5,14.1c2.4-3.3,3.4-5.6,7.5-7.4c5.4-2.3,6.1,0,10.7,2.1
	c-3.7,4.3-6.2,9.6-0.5,13.7c2.7,1.9,5.1,1.6,7.9,2.9c1.9,0.9,3.9,3.5,5.7,4.7c-2.7-1.9-12.1,1.6-15.5,2.4c-6.3,1.6-9.7,0.9-15.1-2.1
	c-9.7-5.3-23.3-8.4-33.9-10.2c-5.8-1-10.4,0.7-16,0.2c-6.1-0.5-12.3-0.6-17.9,1.7c-10.1,4-15.4,9-20.6,19.1
	c4.2-8.6,24.1-12.5,32.9-10.9c8.9,1.5,1.5,8.5,4.9,14.4c1.9,3.2,4.4,2.5,5,6.5c0.4,2.6-1.5,5.7,0,8.8c-0.4-7.2,4.1-9.2,9.9-8.2
	c6.1,1,11.2-1.4,17.3-0.5c-0.4,14.9,16.7,5.7,24.2,5.7c11.9,0,23.5,5.9,34.9,5c5.1-0.4,11.3-0.5,16-2.3c4.8-1.8,9.3-4.8,13.7-7.1
	c5.1-2.6,8.6-6.6,14.1-2.9c2.6,1.8,10.4,6.7,10.3,9.6c8,1.4,15.5,4.6,23.3,4.5c2.1,0,2.7-0.9,5-0.4c1.8,0.4,2.3,2.2,3.9,2.7
	c5,1.7,5.9,0.6,9.8,4.3c4.7,4.6,12.7,10.4,19.5,5.8c6-4,7.6-12.8,3.8-18.2c3.2,2.6,7.9,2.8,11.7,4.8c3.8,2.1,7.9,4.7,10.6,8.3
	c5,6.8,8.4,15.2,12.6,21.9c4.5-11.6,1.2-24-7.3-33.8c-8.6-9.8-16.1-14.9-29.3-14.9c-7.2,0-11.2-2.6-17.5-1c-7.1,1.8-9.6-1-16-3.7
	c-5.9-2.5-12-3.1-17.4-6.6c-1.8-1.2-6-2.9-6.5-5.2c-0.3-1.3,3-7.4,3.4-9.1c1.7-6.8,1.6-13.7,2.5-20.8c0.7-6.1,3.9-11.3,5-17.5
	c2.3-12.6,4.8-25.4,7.4-38.2c2.7-12.9,6.1-24.7,10.9-37.4c2.4-6.4,1.8-13.5,4.3-19.8c1.9-4.8,5.7-8.3,8-12.9
	c8.6,3.4,17.2,6.6,25.8,9.4c9.7,3.2,18.9,6,28.3,8.4c7.9,2,22.6,3.2,29.6,6.9c9,4.7,135.7,131,157,142.2c9.1,4.8,54.8,32.1,61,24.3
	c9.3,4.5,17.7,10,27,15.5c32.9,19.5,23.7-1.3,23.7-1.3s37.9,15.5,50.7,15.5c12.6,0,17.3-2.9,29.6-4.1c1.2-3.7,5.1-8.1,5.6-6.6
	c7.1,2.1,15.1-1.3,18-6.3c3.9-6.6-1.1-15.4,12.9-11.3c7,2,8,7,15.7,6.7c5.9-0.2,14.9-2,16.6-8.5c2.4,2.1,10.4,4.8,14.2,2.8
	C1227.5,1087,1177.8,1057.8,1159.4,1044.6z M347.8,1052.8c5.9-5.5,14-4.3,17.1,5.7C360,1059.7,353.2,1056.3,347.8,1052.8z"/>
</svg>
